<svg width="80" height="80" viewBox="0 0 80 80" fill="none" xmlns="http://www.w3.org/2000/svg">
<path d="M20.6687 70H6.15625V23.2656H20.6687V70ZM13.4047 16.8906C8.76406 16.8906 5 13.0469 5 8.40627C5 6.17721 5.88549 4.03945 7.46168 2.46326C9.03786 0.887078 11.1756 0.00158691 13.4047 0.00158691C15.6337 0.00158691 17.7715 0.887078 19.3477 2.46326C20.9239 4.03945 21.8094 6.17721 21.8094 8.40627C21.8094 13.0469 18.0437 16.8906 13.4047 16.8906ZM74.9844 70H60.5031V47.25C60.5031 41.8281 60.3937 34.875 52.9578 34.875C45.4125 34.875 44.2563 40.7656 44.2563 46.8594V70H29.7594V23.2656H43.6781V29.6406H43.8812C45.8187 25.9688 50.5516 22.0938 57.6125 22.0938C72.3 22.0938 75 31.7656 75 44.3281V70H74.9844Z" fill="white"/>
</svg>
